<?xml version="1.0" encoding="utf-8"?>
<!-- Generator: Adobe Illustrator 25.2.0, SVG Export Plug-In . SVG Version: 6.00 Build 0)  -->
<svg version="1.1" id="Layer_1" xmlns:svgjs="http://svgjs.com/svgjs"
	 xmlns="http://www.w3.org/2000/svg" xmlns:xlink="http://www.w3.org/1999/xlink" x="0px" y="0px" viewBox="0 0 512 512"
	 style="enable-background:new 0 0 512 512;" xml:space="preserve">
<style type="text/css">
	.st0{fill:#DADCDE;}
	.st1{fill:#16A34A;}
	.st2{fill:#166534;}
	.st3{fill:#2C2424;}
	.st4{fill:#15803D;}
	.st5{fill:#302C25;}
	.st6{fill:#4ADE80;}
	.st7{fill:#E9EEF2;}
</style>
<g>
	<path class="st0" d="M280,192c-4.4,0-8-3.6-8-8v-80c0-30.9-25.1-56-56-56s-56,25.1-56,56v80c0,4.4-3.6,8-8,8s-8-3.6-8-8v-80
		c0-39.8,32.2-72,72-72s72,32.2,72,72v80C288,188.4,284.4,192,280,192z"/>
	<path class="st1" d="M296,472H24l16-320h240L296,472z"/>
	<path class="st2" d="M360,472h-64l-16-320h64L360,472z"/>
	<path class="st3" d="M328.5,432c-0.2,0-0.3,0-0.5,0c-4.2,0-7.7-3.3-8-7.5l-16-272c0-0.2,0-0.3,0-0.5h16l16,271.5
		C336.2,427.9,332.9,431.7,328.5,432L328.5,432z"/>
	<path class="st4" d="M488,472h-64l-1-12.9v0L408,264h64l14.8,191.7v0L488,472z"/>
	<path class="st5" d="M456.8,432c-0.3,0-0.5,0-0.8,0c-4.1,0-7.5-3.1-8-7.2l-0.3-2.9L432,264.8c0-0.3,0-0.5,0-0.8h16l15.7,157.2
		l0.2,2C464.4,427.6,461.2,431.5,456.8,432C456.8,432,456.8,432,456.8,432L456.8,432z"/>
	<path class="st5" d="M488,472h-9.6L456,438.4L433.6,472H424l-1-12.9v0l24.8-37.1l1.6-2.4c2.5-3.7,7.4-4.7,11.1-2.2
		c0.9,0.6,1.6,1.3,2.2,2.2l1.1,1.6l23,34.5v0L488,472z"/>
	<path class="st6" d="M424,472H216l16-208h176L424,472z"/>
	<path class="st7" d="M328,416h-16c-22.1,0-40-17.9-40-40v-64c0-4.4,3.6-8,8-8s8,3.6,8,8v64c0,13.2,10.8,24,24,24h16
		c13.2,0,24-10.8,24-24v-64c0-4.4,3.6-8,8-8s8,3.6,8,8v64C368,398.1,350.1,416,328,416z"/>
	<path class="st0" d="M96,184h16v48H96V184z"/>
	<path class="st7" d="M104,192c-4.4,0-8-3.6-8-8v-80c0-39.8,32.2-72,72-72s72,32.2,72,72v80c0,4.4-3.6,8-8,8s-8-3.6-8-8v-80
		c0-30.9-25.1-56-56-56s-56,25.1-56,56v80C112,188.4,108.4,192,104,192z"/>
	<path class="st6" d="M128,296H80v-64l24-16l24,16V296z"/>
</g>
</svg>
